<svg width="375" height="812" viewBox="0 0 375 812" fill="none" xmlns="http://www.w3.org/2000/svg">
<g clip-path="url(#clip0_158_2237)">
<rect width="375" height="812" fill="white"/>
<path d="M0 0H264V354C264 492.623 151.623 605 13 605H0V0Z" fill="#FAC214"/>
<rect x="94.6553" y="438.655" width="185.69" height="185.69" rx="46" fill="#FA9418" stroke="white" stroke-width="10"/>
<g clip-path="url(#clip1_158_2237)">
<path d="M196.022 580.961C196.022 580.961 250.535 584.65 236.231 567.438C221.928 550.226 210.025 560.164 210.025 560.164L196.022 580.961Z" fill="#E51E4D"/>
<path d="M209.548 588.25C194.055 588.25 177.171 585.62 174.291 585.216C153.037 581.675 140.225 573.077 136.054 559.724C125.924 526.948 174.49 477.987 176.575 475.964C178.264 474.346 180.846 474.346 182.435 476.065C184.024 477.785 184.024 480.415 182.336 482.034C169.325 495.083 136.849 534.13 143.999 557.195C147.078 567.209 157.804 573.785 175.582 576.819C179.058 577.325 184.421 578.134 190.579 578.64C192.366 573.178 197.034 563.163 207.959 556.689C219.976 549.507 228.021 552.238 231.795 554.565C237.158 557.903 240.535 564.276 240.237 570.952C240.038 577.022 236.86 582.181 231.894 584.71C226.829 587.34 218.487 588.25 209.548 588.25ZM199.219 579.348C210.74 580.056 222.757 579.955 228.22 577.224C231.398 575.606 231.894 572.166 231.994 570.75C232.093 567.108 230.405 563.669 227.524 561.949C223.75 559.622 218.387 560.432 212.23 564.073C204.781 568.423 201.007 574.999 199.219 579.348Z" fill="black"/>
</g>
<path d="M259.355 182.155C262.63 175.812 270.455 173.317 276.798 176.592C282.842 179.713 285.392 186.966 282.785 193.13C282.57 193.638 282.758 194.241 283.249 194.494L284.539 195.161C285.03 195.414 285.637 195.222 285.86 194.717C289.336 186.857 286.118 177.52 278.382 173.525C270.348 169.376 260.436 172.536 256.287 180.57C252.292 188.306 255.074 197.783 262.458 202.18C262.932 202.462 263.538 202.268 263.792 201.777L264.458 200.487C264.711 199.996 264.516 199.395 264.046 199.105C258.352 195.588 256.233 188.198 259.355 182.155Z" fill="#FAC214"/>
<path d="M274.696 180.364L272.639 179.301C272.148 179.048 271.545 179.24 271.292 179.731L270.625 181.021C270.372 181.512 270.564 182.115 271.055 182.369L273.112 183.431C273.603 183.684 274.206 183.492 274.459 183.001L275.126 181.711C275.379 181.22 275.187 180.617 274.696 180.364Z" fill="#FAC214"/>
<path d="M265.764 184.493L263.707 183.431C263.216 183.177 262.613 183.37 262.359 183.86L261.693 185.151C261.439 185.641 261.632 186.245 262.122 186.498L264.18 187.561C264.67 187.814 265.274 187.622 265.527 187.131L266.194 185.84C266.447 185.35 266.255 184.747 265.764 184.493Z" fill="#FAC214"/>
<path d="M276.129 188.875L273.305 187.416C272.814 187.163 272.211 187.355 271.958 187.846L271.291 189.136C271.038 189.627 271.23 190.23 271.721 190.484L274.545 191.942C275.036 192.196 275.639 192.003 275.892 191.512L276.559 190.222C276.812 189.731 276.62 189.128 276.129 188.875Z" fill="#FAC214"/>
<path d="M317.19 216.88L302.902 209.501C302.224 209.151 302.172 208.202 302.807 207.78L312.411 201.391C312.713 201.19 313.101 201.169 313.423 201.335L319.545 204.497C320.036 204.75 320.639 204.558 320.893 204.067L321.559 202.777C321.812 202.286 321.62 201.683 321.129 201.429L313.582 197.532C313.025 197.244 312.356 197.281 311.834 197.628L298.373 206.583C298.07 206.784 297.683 206.806 297.36 206.639L274.245 194.702C273.398 194.264 272.357 194.596 271.92 195.443L268.751 201.578C268.314 202.425 268.646 203.467 269.493 203.904L271.902 205.148C272.359 205.384 272.562 205.927 272.373 206.405L263.701 228.305C263.374 229.13 263.726 230.067 264.514 230.474L265.305 230.883C265.775 231.126 265.975 231.691 265.762 232.174L255.653 255.162C255.287 255.996 255.632 256.972 256.442 257.39L276.38 267.687C277.19 268.106 278.186 267.822 278.653 267.04L291.546 245.49C291.817 245.037 292.394 244.873 292.863 245.115L293.655 245.524C294.443 245.931 295.411 245.674 295.894 244.931L308.731 225.182C309.011 224.751 309.572 224.602 310.028 224.838L312.438 226.082C313.284 226.52 314.326 226.188 314.763 225.341L317.932 219.206C318.369 218.359 318.037 217.317 317.19 216.88ZM294.344 240.981C294.064 241.411 293.503 241.56 293.047 241.324L292.171 240.872C291.361 240.454 290.366 240.737 289.898 241.52L277.006 263.069C276.734 263.523 276.158 263.687 275.688 263.445L260.301 255.498C259.832 255.256 259.632 254.69 259.845 254.207L268.785 233.876C269.017 233.348 269.647 233.125 270.159 233.39L281.263 239.124C281.754 239.378 282.357 239.185 282.61 238.695L283.277 237.404C283.53 236.913 283.338 236.31 282.847 236.057L269.165 228.991L268.29 228.539C267.833 228.303 267.63 227.76 267.819 227.282L271.55 217.86C271.768 217.31 272.413 217.069 272.938 217.34L299.487 231.051C300.013 231.322 300.189 231.988 299.867 232.484L294.344 240.981ZM302.853 227.89C302.573 228.321 302.012 228.469 301.556 228.234L274.038 214.023C273.582 213.787 273.378 213.244 273.567 212.766L275.382 208.183C275.6 207.633 276.245 207.391 276.771 207.663L305.16 222.324C305.685 222.595 305.862 223.261 305.539 223.757L302.853 227.89ZM312.488 222.223L273.499 202.088C273.009 201.834 272.816 201.231 273.07 200.74L273.736 199.45C273.99 198.959 274.593 198.767 275.083 199.02L313.183 218.696C313.674 218.95 313.866 219.553 313.613 220.044L312.488 222.223C312.488 222.223 312.488 222.223 312.488 222.223Z" fill="#FAC214"/>
<path d="M106.132 669.689C105.034 670.177 103.326 670.909 102.96 671.092C102.411 671.397 101.801 672.068 101.801 673.471V679.205C101.801 680.547 100.764 681.584 99.4219 681.584C98.1409 681.584 97.1039 680.547 97.1039 679.205V648.034C97.1039 646.753 98.1409 645.716 99.4219 645.716C100.764 645.716 101.801 646.753 101.801 648.034V657.611L104.973 656.147C105.522 655.903 106.132 655.232 106.132 653.829V647.302C106.132 644.374 103.814 641.934 100.886 641.873H98.2019C95.1519 641.873 92.7119 644.313 92.7119 647.302V679.998C92.7119 682.987 95.1519 685.427 98.2019 685.427H100.886C103.814 685.305 106.132 682.926 106.132 679.998V669.689Z" fill="black"/>
<path d="M134.839 680.669V643.642C134.839 642.91 134.229 642.361 133.497 642.3H130.447V685H140.939C142.342 685 143.013 684.39 143.318 683.841C143.501 683.475 144.233 681.767 144.721 680.669H134.839Z" fill="black"/>
<path d="M176.856 685H172.037L168.194 655.598L164.351 685H159.532L165.998 642.3H168.377C170.207 642.3 170.512 643.459 170.695 644.618L176.856 685Z" fill="#FA9418"/>
<path d="M213.735 642.3H211.051C209.465 642.3 209.16 643.642 209.099 643.825L204.28 668.408L199.217 643.886C199.217 643.886 198.973 642.3 197.265 642.3H194.581V685H198.912V662.979L201.474 674.142C201.718 675.057 202.206 677.619 204.768 677.619H206.11L209.404 662.979V685H213.735V642.3Z" fill="black"/>
<path d="M239.789 641.873C236.739 641.873 234.299 644.313 234.299 647.302V680.059C234.36 682.987 236.8 685.427 239.789 685.427H243.144C246.072 685.305 248.39 682.987 248.451 680.059V647.302C248.451 644.374 246.072 641.995 243.144 641.873H239.789ZM241.009 681.584C239.728 681.523 238.691 680.486 238.691 679.205V648.095C238.691 646.814 239.728 645.777 241.009 645.716H241.68C242.961 645.716 243.998 646.753 243.998 648.095V679.205C243.998 680.547 242.961 681.584 241.68 681.584H241.009Z" fill="black"/>
<path d="M284.539 685V668.652C284.539 668.652 284.661 665.48 282.953 664.626C284.722 664.199 284.539 660.844 284.539 660.844V647.668C284.539 644.679 282.099 642.3 279.171 642.3H271.18V685H275.572V666.639H277.89C279.049 666.639 280.147 667.31 280.147 669.384V685H284.539ZM275.572 662.491V646.387H277.89C279.049 646.387 280.147 646.997 280.147 648.583V660.051C280.147 662.003 279.049 662.491 277.89 662.491H275.572Z" fill="black"/>
<path d="M58.9914 122.319C58.9451 122.25 58.89 122.186 58.8305 122.129C58.771 122.071 58.7067 122.018 58.6369 121.972C58.5665 121.928 58.4911 121.888 58.4142 121.857C58.3372 121.827 58.2564 121.803 58.1739 121.789C58.0926 121.774 58.0091 121.767 57.9264 121.768C57.8424 121.769 57.7592 121.779 57.6777 121.796C57.5137 121.83 57.3593 121.897 57.2215 121.992C57.1532 122.04 57.0891 122.093 57.0315 122.153C56.9727 122.213 56.9205 122.278 56.8754 122.348C56.8292 122.418 56.7907 122.492 56.7601 122.569C56.7294 122.646 56.7065 122.728 56.6916 122.81C56.6772 122.892 56.6701 122.975 56.6711 123.058C56.672 123.141 56.6804 123.225 56.6986 123.306C56.7161 123.388 56.7406 123.468 56.7739 123.545C56.8066 123.621 56.8475 123.694 56.8955 123.763C56.9418 123.832 56.9969 123.896 57.0563 123.953C57.1158 124.011 57.1813 124.063 57.2511 124.109C57.3204 124.154 57.3957 124.194 57.4727 124.225C57.5497 124.255 57.6305 124.279 57.7129 124.293C57.7942 124.308 57.8777 124.315 57.9616 124.314C58.0444 124.313 58.1277 124.303 58.2091 124.286C58.2905 124.269 58.3713 124.244 58.4473 124.211C58.5233 124.179 58.597 124.137 58.6653 124.09C58.7336 124.042 58.7978 123.988 58.8565 123.928C58.9141 123.869 58.9664 123.803 59.0114 123.734C59.0576 123.664 59.096 123.59 59.1268 123.512C59.1574 123.436 59.1804 123.354 59.1964 123.272C59.2109 123.189 59.2167 123.106 59.2158 123.024C59.2148 122.941 59.2065 122.857 59.1883 122.776C59.1707 122.693 59.1462 122.614 59.1135 122.538C59.0802 122.461 59.0393 122.388 58.9914 122.319Z" fill="#FFE082"/>
<path d="M82.3315 80.3385C82.2545 80.3079 82.1742 80.2856 82.0912 80.27C82.0099 80.2551 81.9265 80.248 81.8437 80.249C81.7598 80.2505 81.6765 80.26 81.5963 80.2765C81.1828 80.363 80.833 80.6619 80.6774 81.0506C80.554 81.363 80.5583 81.7176 80.6907 82.0252C80.724 82.1024 80.7649 82.1749 80.8128 82.2444C80.8603 82.3127 80.9142 82.3769 80.9737 82.4345C81.0331 82.4921 81.0986 82.5443 81.1684 82.5905C81.2377 82.6355 81.3124 82.6741 81.39 82.7059C81.7013 82.8298 82.057 82.825 82.3646 82.6926C82.4407 82.6598 82.5143 82.6184 82.5838 82.5705C82.651 82.5235 82.7151 82.4696 82.7739 82.4096C82.8315 82.3501 82.8837 82.2847 82.9287 82.2154C82.9744 82.1444 83.0135 82.0707 83.0441 81.9938C83.0754 81.9151 83.0977 81.8348 83.1138 81.753C83.1283 81.6705 83.1352 81.5871 83.1343 81.5043C83.1333 81.4215 83.1238 81.3383 83.1068 81.2568C83.0893 81.1743 83.0635 81.0952 83.0303 81.018C82.898 80.7106 82.644 80.462 82.3315 80.3385Z" fill="#FFE082"/>
<path d="M54.7236 83.4621C54.6466 83.4315 54.5663 83.4092 54.4833 83.3936C54.402 83.3787 54.3186 83.3716 54.2358 83.3726C54.1519 83.3741 54.0686 83.3836 53.9883 83.4001C53.5749 83.4866 53.2251 83.7855 53.0695 84.1742C52.9461 84.4866 52.9504 84.8412 53.0828 85.1488C53.116 85.226 53.157 85.2985 53.2049 85.368C53.2523 85.4363 53.3063 85.5005 53.3658 85.5581C53.4252 85.6157 53.4907 85.6679 53.5605 85.7141C53.6298 85.7591 53.7045 85.7977 53.7821 85.8295C54.0934 85.9534 54.4491 85.9486 54.7567 85.8162C54.8327 85.7834 54.9064 85.742 54.9759 85.6941C55.0431 85.6471 55.1072 85.5932 55.166 85.5332C55.2236 85.4737 55.2758 85.4083 55.3208 85.339C55.3665 85.268 55.4055 85.1943 55.4362 85.1174C55.4675 85.0387 55.4898 84.9584 55.5059 84.8766C55.5204 84.7941 55.5273 84.7107 55.5264 84.6279C55.5254 84.5451 55.5159 84.4619 55.4989 84.3804C55.4813 84.2979 55.4556 84.2188 55.4224 84.1416C55.29 83.8342 55.0361 83.5856 54.7236 83.4621Z" fill="#FFE082"/>
<path d="M60.1399 82.5794C60.0629 82.5487 59.9826 82.5264 59.8996 82.5109C59.8183 82.4959 59.7348 82.4889 59.6521 82.4899C59.5681 82.4913 59.4848 82.5008 59.4046 82.5174C58.9912 82.6038 58.6414 82.9028 58.4858 83.2915C58.3624 83.6039 58.3666 83.9584 58.4991 84.2661C58.5323 84.3433 58.5732 84.4158 58.6212 84.4853C58.6686 84.5536 58.7226 84.6177 58.782 84.6753C58.8415 84.7329 58.907 84.7851 58.9768 84.8313C59.0461 84.8764 59.1208 84.9149 59.1984 84.9467C59.5096 85.0706 59.8653 85.0659 60.173 84.9334C60.249 84.9007 60.3227 84.8592 60.3922 84.8113C60.4593 84.7644 60.5235 84.7104 60.5822 84.6505C60.6398 84.591 60.6921 84.5255 60.7371 84.4562C60.7828 84.3852 60.8218 84.3116 60.8525 84.2346C60.8838 84.156 60.906 84.0757 60.9221 83.9939C60.9367 83.9113 60.9436 83.8279 60.9426 83.7451C60.9417 83.6624 60.9322 83.5791 60.9151 83.4977C60.8976 83.4151 60.8719 83.336 60.8386 83.2588C60.7063 82.9514 60.4523 82.7029 60.1399 82.5794Z" fill="#FFE082"/>
<path d="M64.5019 79.2524C64.4249 79.2217 64.3446 79.1995 64.2617 79.1839C64.1804 79.169 64.0969 79.1619 64.0141 79.1629C63.9302 79.1644 63.8469 79.1739 63.7667 79.1904C63.3532 79.2769 63.0034 79.5758 62.8478 79.9645C62.7244 80.2769 62.7287 80.6314 62.8611 80.9391C62.8944 81.0163 62.9353 81.0888 62.9832 81.1583C63.0307 81.2266 63.0846 81.2907 63.1441 81.3483C63.2035 81.4059 63.269 81.4582 63.3388 81.5044C63.4081 81.5494 63.4828 81.588 63.5604 81.6197C63.8717 81.7437 64.2274 81.7389 64.535 81.6064C64.6111 81.5737 64.6847 81.5323 64.7542 81.4843C64.8214 81.4374 64.8855 81.3835 64.9443 81.3235C65.0019 81.264 65.0541 81.1986 65.0992 81.1292C65.1449 81.0583 65.1839 80.9846 65.2145 80.9076C65.2458 80.829 65.2681 80.7487 65.2842 80.6669C65.2987 80.5844 65.3057 80.501 65.3047 80.4182C65.3037 80.3354 65.2942 80.2521 65.2772 80.1707C65.2597 80.0881 65.2339 80.0091 65.2007 79.9319C65.0684 79.6245 64.8144 79.3759 64.5019 79.2524Z" fill="#FFE082"/>
<path d="M69.9199 78.369C69.8429 78.3384 69.7626 78.3161 69.6796 78.3005C69.5983 78.2856 69.5149 78.2786 69.4321 78.2795C69.3481 78.281 69.2649 78.2905 69.1846 78.307C68.7712 78.3935 68.4214 78.6925 68.2658 79.0811C68.1424 79.3936 68.1466 79.7481 68.2791 80.0557C68.3123 80.1329 68.3533 80.2054 68.4012 80.2749C68.4486 80.3433 68.5026 80.4074 68.5621 80.465C68.6215 80.5226 68.687 80.5748 68.7568 80.621C68.8261 80.6661 68.9008 80.7046 68.9784 80.7364C69.2896 80.8603 69.6453 80.8555 69.953 80.7231C70.029 80.6903 70.1027 80.6489 70.1722 80.601C70.2394 80.554 70.3035 80.5001 70.3623 80.4401C70.4198 80.3807 70.4721 80.3152 70.5171 80.2459C70.5628 80.1749 70.6018 80.1013 70.6325 80.0243C70.6638 79.9456 70.6861 79.8653 70.7022 79.7835C70.7167 79.701 70.7236 79.6176 70.7227 79.5348C70.7217 79.452 70.7122 79.3688 70.6952 79.2874C70.6776 79.2048 70.6519 79.1257 70.6187 79.0485C70.4863 78.7411 70.2324 78.4926 69.9199 78.369Z" fill="#FFE082"/>
<path d="M97.1826 83.255C96.4668 81.5921 94.7779 80.6414 93.066 80.7809C89.1411 72.1883 79.0128 68.2536 70.2934 72.0074L47.5999 81.7772C38.8805 85.5309 34.7776 95.5923 38.3217 104.349C37.0437 105.497 36.5735 107.377 37.2895 109.04C37.5629 109.675 37.9867 110.213 38.5051 110.624C38.5827 110.975 38.6934 111.318 38.8365 111.65L38.8722 111.733C39.5802 113.378 40.9756 114.519 42.5791 114.967C41.8052 116.448 41.6784 118.251 42.389 119.902C43.1502 121.67 44.6995 122.861 46.4507 123.243L47.7938 126.362C49.8378 131.11 55.3635 133.31 60.1113 131.266L97.6424 115.108C102.39 113.064 104.59 107.539 102.546 102.791L101.203 99.6711C102.13 98.1371 102.329 96.193 101.568 94.4249C100.87 92.8045 99.496 91.6584 97.9066 91.1894C98.6608 89.7261 98.7802 87.9492 98.0799 86.3225L98.0442 86.2396C97.8939 85.8905 97.7105 85.5591 97.4962 85.2491C97.5578 84.5827 97.459 83.897 97.1826 83.255ZM39.9477 101.032L77.6666 84.7936C78.3126 84.5155 78.6109 83.7663 78.3327 83.1202C78.0546 82.4741 77.3054 82.1759 76.6594 82.454L39.6077 98.4051C39.3742 92.4208 42.786 86.6227 48.6071 84.1166L71.3006 74.3469C78.6635 71.1771 87.2031 74.4271 90.6346 81.5942L40.5835 103.142C40.3163 102.446 40.1052 101.741 39.9477 101.032ZM44.7285 118.895C44.0317 117.276 44.7816 115.392 46.4002 114.695L60.1217 108.788L69.1235 111.872L48.9277 120.566C47.3091 121.263 45.4254 120.513 44.7285 118.895ZM41.6727 111.482C41.7277 111.474 41.7826 111.465 41.8375 111.454C42.7878 111.272 43.9577 111.651 45.1962 112.053C45.3646 112.107 45.5368 112.163 45.7122 112.219L45.3518 112.374C44.0354 112.94 42.5414 112.537 41.6727 111.482ZM82.3073 106.434L86.3887 97.4802L92.2552 95.0337L86.4167 107.841L82.3073 106.434ZM84.9455 110.03L79.6234 112.321L80.869 109.588L82.1047 109.057L84.9455 110.03ZM82.9058 98.9794L77.0227 111.885L63.6045 107.289L82.9058 98.9794ZM74.9349 99.6377C74.9918 99.4965 75.0468 99.3573 75.1007 99.2207C75.7328 97.6192 76.232 96.3542 78.0839 95.557C79.9359 94.7597 81.1978 95.2665 82.7957 95.9082C82.9318 95.9629 83.0706 96.0186 83.2123 96.0742L74.9349 99.6377ZM56.2031 107.702C56.2599 107.561 56.3149 107.422 56.3687 107.285C57.0008 105.684 57.5 104.419 59.3519 103.621C61.2037 102.824 62.4657 103.331 64.0633 103.972C64.1996 104.027 64.3384 104.083 64.4802 104.139L56.2031 107.702ZM96.6353 112.769L59.1041 128.926C55.6462 130.415 51.622 128.813 50.1334 125.355L49.2131 123.217L72.7109 113.101L75.5518 114.074L62.1675 119.836C61.5215 120.114 61.2232 120.863 61.5014 121.51C61.7795 122.156 62.5287 122.454 63.1748 122.176L100.745 106.001C100.948 108.82 99.3737 111.59 96.6353 112.769ZM100.084 103.513L89.0175 108.277L90.2632 105.544L99.2861 101.66L100.084 103.513ZM97.5568 99.6313L91.8358 102.094L95.7311 93.549C97.1648 93.2929 98.6355 94.0548 99.2285 95.4321C99.9253 97.0506 99.1754 98.9345 97.5568 99.6313ZM93.7028 91.558C93.7092 91.5447 93.7157 91.5315 93.722 91.5182C93.7246 91.5131 93.727 91.508 93.7295 91.5029C93.7378 91.4856 93.7461 91.4682 93.7545 91.4509C93.8165 91.3218 93.8773 91.1943 93.9369 91.0691C94.2358 90.4411 94.5258 89.8317 94.8508 89.3141C95.1343 88.8627 95.4446 88.4811 95.8107 88.218C95.8234 88.2088 95.8361 88.1996 95.8487 88.1904C95.85 88.1894 95.8515 88.1883 95.8528 88.1872C95.864 88.179 95.8751 88.1707 95.8861 88.1624C95.8884 88.1607 95.8907 88.1589 95.8929 88.1572C95.9027 88.1498 95.9124 88.1424 95.9221 88.1349C95.927 88.1312 95.9318 88.1274 95.9366 88.1236C95.9434 88.1183 95.9502 88.113 95.9569 88.1076C95.9588 88.1064 95.9603 88.1052 95.962 88.1038C96.1445 89.3114 95.6052 90.5374 94.5701 91.213C94.4867 91.2302 94.4042 91.256 94.324 91.2905L93.7028 91.558ZM94.3241 86.15C94.1594 86.2684 94.0043 86.3948 93.858 86.5283C92.8511 87.4455 92.248 88.6914 91.6687 89.9084C91.6582 89.9305 91.6477 89.9526 91.6372 89.9748C90.969 91.3789 90.3324 92.7167 89.139 93.5231L87.6012 94.1852C86.1881 94.5259 85.0845 94.0828 83.745 93.5448C82.0328 92.8572 79.902 92.0015 77.0769 93.2177C74.2518 94.4339 73.4089 96.5697 72.7315 98.286C72.2015 99.6289 71.7649 100.735 70.5457 101.528L68.8697 102.249C67.4562 102.59 66.3524 102.147 65.0126 101.609C63.3005 100.921 61.1698 100.066 58.3449 101.282C55.5197 102.498 54.6769 104.634 53.9996 106.35C53.4697 107.693 53.0331 108.799 51.8143 109.592L50.9878 109.948C49.3344 110.659 47.6921 110.127 45.9535 109.563C44.4632 109.08 42.9221 108.58 41.3287 108.886C40.9728 108.954 40.6013 108.895 40.2826 108.719C40.2186 108.684 40.1524 108.654 40.0847 108.631C39.8908 108.475 39.7321 108.272 39.6293 108.033C39.2873 107.239 39.6551 106.315 40.449 105.973L92.7836 83.4423C93.5776 83.1005 94.5014 83.4683 94.8432 84.2623C95.1317 84.9324 94.9134 85.7262 94.3241 86.15Z" fill="#FFE082"/>
<path d="M199.34 244.689L186.524 242.737C189.819 239.529 190.656 234.74 188.69 229.39C190.048 227.225 190.526 224.692 189.888 222.377C189.784 221.998 189.543 221.671 189.212 221.459C187.372 220.276 185.082 219.924 182.82 220.364C181.983 219.498 181.089 218.667 180.148 217.892C169.955 209.489 147.677 200.361 133.617 200.8L130.555 197.263C131.545 196.435 132.239 195.32 132.627 193.926C133.165 191.995 132.881 189.997 131.849 188.442C130.775 186.826 129.068 185.751 127.158 185.49C125.25 185.23 123.321 185.803 121.866 187.063C120.373 188.355 119.538 190.245 119.551 192.188C119.544 192.187 119.538 192.186 119.531 192.185C117.201 191.83 114.844 192.723 113.306 194.612C111.573 196.739 111.348 199.868 112.758 202.221C113.791 203.946 115.508 205.115 117.469 205.429C117.486 205.432 117.503 205.434 117.52 205.437C119.465 205.733 121.429 205.167 122.917 203.879C122.944 203.856 122.97 203.832 122.997 203.809L123.824 204.765C116.574 210.606 115.5 217.854 115.927 223.02C116.279 227.279 117.667 230.755 118.41 232.359L105.121 230.334C104.25 230.201 103.436 230.8 103.303 231.671C103.171 232.542 103.769 233.356 104.64 233.489L117.312 235.419L119.75 239.966C120.742 241.814 122.572 243.107 124.646 243.423L176.803 251.369C178.877 251.685 181.01 250.996 182.507 249.527L186.189 245.913L198.86 247.843C199.731 247.976 200.545 247.377 200.677 246.506C200.81 245.635 200.211 244.822 199.34 244.689ZM180.365 224.859C182.42 223.348 185.026 222.967 186.935 223.842C187.202 225.924 186.062 228.299 184.007 229.81C182.687 230.781 181.141 231.283 179.698 231.288L181.472 229.982C182.182 229.46 182.334 228.461 181.812 227.752C181.29 227.042 180.291 226.89 179.581 227.412L177.569 228.892C177.945 227.389 178.931 225.914 180.365 224.859ZM178.118 220.354C178.604 220.754 179.075 221.171 179.532 221.6C179.171 221.808 178.818 222.036 178.474 222.289C175.428 224.53 173.826 228.05 174.282 231.31L172.029 232.968C171.138 232.193 170.032 231.646 168.791 231.431C168.783 227.797 167.493 224.332 165.08 221.545C161.295 217.173 154.186 213.384 147.31 209.721C143.658 207.775 140.138 205.899 137.484 204.115C149.896 205.187 168.514 212.436 178.118 220.354ZM171.115 238.56C171.019 239.193 170.749 239.783 170.341 240.271L164.404 239.367C164.16 238.779 164.078 238.136 164.175 237.502C164.466 235.589 166.26 234.269 168.174 234.561C170.087 234.852 171.407 236.646 171.115 238.56ZM134.003 205.537C136.988 207.837 141.304 210.137 145.809 212.537C152.428 216.064 159.271 219.71 162.667 223.633C164.62 225.889 165.639 228.706 165.596 231.653C165.274 231.757 164.961 231.885 164.66 232.036C163.37 229.986 161.241 228.555 158.816 228.186C154.235 227.488 149.941 230.647 149.243 235.227C149.151 235.831 149.13 236.441 149.17 237.046L145.204 236.441C144.935 233.44 142.649 230.887 139.539 230.414C139.515 230.41 139.49 230.406 139.465 230.403C138.216 227.444 137.053 224.222 135.926 221.093C134.196 216.29 132.538 211.689 130.69 208.405L134.003 205.537ZM160.995 238.847L152.451 237.545C152.325 236.943 152.304 236.32 152.397 235.708C152.83 232.867 155.494 230.908 158.335 231.341C159.994 231.593 161.429 232.65 162.191 234.142C161.598 234.971 161.184 235.947 161.02 237.022C160.927 237.631 160.92 238.245 160.995 238.847ZM141.858 235.931L122.224 232.94C122.97 231.906 124.254 231.313 125.599 231.517C125.767 231.543 125.952 231.592 126.198 231.675C126.841 231.893 127.55 231.681 127.968 231.147C129.135 229.652 131.003 228.898 132.841 229.178C134.471 229.426 135.879 230.458 136.645 231.925C136.724 232.111 136.802 232.299 136.882 232.483C136.914 232.557 136.953 232.627 136.995 232.694C137.275 233.221 137.83 233.556 138.44 233.54C138.7 233.534 138.89 233.542 139.059 233.568C140.404 233.773 141.453 234.722 141.858 235.931ZM124.161 200.278C123.822 199.886 123.313 199.684 122.797 199.735C122.281 199.786 121.822 200.085 121.566 200.536C121.348 200.921 121.107 201.226 120.828 201.467C120.049 202.141 119.019 202.438 118 202.283C117.991 202.281 117.982 202.28 117.973 202.278C116.931 202.111 116.051 201.509 115.495 200.582C114.774 199.378 114.894 197.715 115.78 196.627C116.715 195.479 118.218 195.025 119.608 195.471C120.451 195.742 121.382 195.55 122.039 194.972C122.668 194.418 122.952 193.597 122.8 192.775C122.573 191.553 123.015 190.288 123.954 189.476C124.716 188.816 125.727 188.515 126.727 188.652C127.739 188.796 128.616 189.343 129.19 190.208C129.702 190.978 129.838 192.048 129.553 193.07C129.22 194.264 128.613 194.955 127.522 195.381C127.039 195.569 126.677 195.981 126.553 196.484C126.428 196.987 126.556 197.52 126.895 197.912L131.555 203.295C131.578 203.321 131.603 203.348 131.626 203.374L128.889 205.744C128.866 205.717 128.844 205.688 128.821 205.662L124.161 200.278ZM120.798 229.831C120.153 228.206 119.349 225.684 119.107 222.758C118.584 216.428 120.874 211.193 125.913 207.178L126.408 207.75C128.668 210.36 130.735 216.099 132.924 222.175C133.412 223.53 133.908 224.904 134.415 226.269C134.058 226.164 133.695 226.08 133.322 226.023C130.699 225.623 128.046 226.516 126.168 228.377C126.139 228.372 126.109 228.367 126.08 228.363C124.116 228.064 122.22 228.654 120.798 229.831ZM180.271 247.25C179.487 248.02 178.37 248.38 177.284 248.215L125.127 240.269C124.04 240.103 123.081 239.426 122.562 238.458L121.255 236.021L182.032 245.28C182.034 245.28 182.035 245.281 182.036 245.281C182.037 245.281 182.038 245.281 182.039 245.281L182.245 245.312L180.271 247.25ZM182.024 242.051L173.751 240.79C174.001 240.238 174.177 239.65 174.27 239.04C174.455 237.826 174.298 236.638 173.875 235.571L176.276 233.805C176.925 234.085 177.612 234.279 178.32 234.387C180.821 234.768 183.587 234.081 185.898 232.381C185.998 232.307 186.097 232.231 186.195 232.154C186.924 235.21 186.89 239.578 182.024 242.051Z" fill="#FFE082"/>
<path d="M155.905 191.49C155.5 194.145 156.411 195.721 157.143 196.988C157.771 198.075 158.225 198.861 157.989 200.409C157.856 201.28 158.455 202.094 159.326 202.226C160.197 202.359 161.011 201.76 161.144 200.889C161.548 198.234 160.637 196.658 159.906 195.391C159.278 194.304 158.824 193.518 159.059 191.971C159.296 190.421 159.963 189.805 160.887 188.953C161.963 187.961 163.301 186.727 163.706 184.07C164.111 181.412 163.201 179.834 162.47 178.567C161.841 177.477 161.387 176.69 161.624 175.138C161.757 174.267 161.158 173.453 160.287 173.321C159.416 173.188 158.602 173.787 158.469 174.658C158.064 177.315 158.974 178.893 159.706 180.161C160.334 181.251 160.788 182.038 160.551 183.59C160.315 185.14 159.648 185.755 158.724 186.607C157.648 187.599 156.309 188.834 155.905 191.49Z" fill="#FFE082"/>
<path d="M164.179 194.363C164.68 194.439 165.162 194.274 165.506 193.954C166.861 192.704 169.672 190.107 170.436 185.095C170.746 183.06 170.647 181.081 170.141 179.214C169.911 178.363 169.035 177.861 168.184 178.091C167.334 178.321 166.831 179.197 167.061 180.048C167.45 181.484 167.524 183.02 167.281 184.615C166.688 188.508 164.609 190.44 163.355 191.597C163.088 191.835 162.9 192.164 162.842 192.545C162.709 193.416 163.308 194.23 164.179 194.363Z" fill="#FFE082"/>
<path d="M150.762 197.467C150.974 197.499 151.195 197.489 151.414 197.43C152.266 197.203 152.771 196.328 152.543 195.477C152.162 194.052 152.091 192.527 152.332 190.946C152.927 187.036 155.022 185.104 156.274 183.949C156.308 183.918 156.341 183.885 156.372 183.851C156.806 183.375 156.911 182.674 156.638 182.09C156.266 181.292 155.316 180.947 154.518 181.32C154.312 181.416 154.137 181.55 153.996 181.71C152.604 182.997 149.92 185.587 149.177 190.465C148.869 192.485 148.965 194.449 149.461 196.302C149.63 196.933 150.155 197.375 150.762 197.467Z" fill="#FFE082"/>
<path d="M73.1969 361.234L71.233 359.622C65.8449 366.183 57.8663 370.092 49.3425 370.347L49.4185 372.887C58.6763 372.61 67.3432 368.363 73.1969 361.234Z" fill="#FFE082"/>
<path d="M66.4435 390.889L-28.6284 346.864L-29.6962 349.17L65.3757 393.195L66.4435 390.889Z" fill="#FFE082"/>
<path d="M-5.59966 310.182C-5.12211 309.519 -4.66998 308.9 -4.23896 308.317L1.04597 313.61L2.84432 311.815L-2.69789 306.264C0.0342518 302.691 1.70847 300.881 3.00458 299.588C4.43576 298.158 6.33838 297.372 8.36218 297.374C10.386 297.376 12.2874 298.166 13.7172 299.598C15.1473 301.03 15.9338 302.933 15.932 304.956C15.93 306.98 15.1406 308.882 13.7094 310.311C13.5251 310.495 13.2689 310.733 12.9498 311.018L8.30373 306.364L6.50538 308.16L11.0135 312.675C9.33721 314.07 7.09261 315.861 4.60483 317.76L-10.6813 310.681L-11.7786 313.05C-12.0764 313.694 -12.3586 314.353 -12.6172 315.011C-17.8239 328.242 -14.561 342.841 -5.30864 352.635L-26.7114 342.724L-27.7792 345.03L5.6363 360.504L33.8772 373.582L67.2927 389.056L68.3605 386.75L46.9545 376.837C61.1255 377.591 75.0126 369.811 81.3307 356.167L81.4165 355.982C82.9985 356.428 84.6609 356.499 86.3001 356.183C89.0934 355.643 91.5092 354.048 93.1034 351.692C94.6983 349.336 95.2793 346.5 94.7396 343.708C94.357 341.726 93.4162 339.931 92.0873 338.496C93.0516 337.935 93.872 337.13 94.4357 336.156C94.7484 335.617 94.9818 335.033 95.1301 334.416C95.951 330.957 93.8053 327.474 90.3457 326.651C89.7475 326.509 89.1397 326.455 88.5389 326.484C88.556 326.424 88.5759 326.365 88.5923 326.305C89.4953 322.969 89.046 319.482 87.3261 316.485C83.7759 310.297 75.8541 308.152 69.6666 311.702C68.6723 312.273 67.7737 312.968 66.9824 313.76C62.354 310.077 55.5813 310.67 51.6764 315.182C49.9784 317.143 49.0163 319.649 48.9672 322.238L51.5078 322.286C51.5454 320.29 52.2875 318.358 53.5973 316.845C55.0941 315.116 57.1748 314.073 59.456 313.908C61.6042 313.754 63.6879 314.396 65.3692 315.722C63.7734 318.106 62.9723 321.002 63.2064 323.954L65.7396 323.753C65.4232 319.763 67.4608 315.898 70.9312 313.906C73.3393 312.524 76.1421 312.163 78.8222 312.889C81.5021 313.615 83.7395 315.341 85.1215 317.749C86.5033 320.158 86.865 322.96 86.1392 325.64C85.4133 328.321 83.687 330.558 81.2787 331.94L82.5434 334.144C84.5806 332.975 86.2239 331.314 87.3519 329.323C88.1105 329.005 88.9482 328.931 89.7583 329.124C91.8551 329.623 93.1549 331.733 92.6582 333.826C92.5684 334.2 92.427 334.555 92.237 334.882C91.728 335.763 90.8744 336.414 89.9001 336.688C88.9907 336.119 87.9928 335.678 86.9264 335.404L86.2926 337.865C89.3179 338.643 91.6538 341.126 92.2448 344.189C93.0928 348.578 90.21 352.839 85.8183 353.688C84.1782 354.005 82.508 353.811 80.9863 353.13L68.3156 347.262C74.1131 343.814 77.1543 344.899 77.1873 344.911L77.1633 344.901L78.1654 342.566C77.6891 342.362 73.3775 340.769 65.5733 345.992L64.9984 345.726C65.212 345.372 65.4127 345.008 65.5939 344.632C67.1658 341.371 67.3595 337.699 66.1393 334.292C64.9187 330.885 62.4383 328.171 59.1547 326.651C57.102 325.7 54.8287 325.281 52.5792 325.44C51.9166 325.487 51.2317 325.505 50.5446 325.493C47.0172 325.428 43.6819 324.515 40.8995 322.852C40.6692 322.714 40.4278 322.588 40.1808 322.469C38.5318 318.975 36.3807 315.633 34.6484 313.175C35.7943 310.575 37.2252 308.082 38.9077 305.764L39.8151 304.514L38.4134 303.865C37.7666 303.565 36.0453 302.948 34.037 303.685C33.8452 303.756 33.6595 303.837 33.4787 303.926C33.4294 303.731 33.3711 303.537 33.3009 303.345C32.5638 301.336 30.9799 300.423 30.3331 300.123L28.9314 299.474L28.5648 300.974C27.8852 303.757 26.9098 306.46 25.6693 309.015C23.1831 309.238 20.0475 309.634 16.9221 310.335C17.9291 308.74 18.4717 306.891 18.4734 304.958C18.4746 303.588 18.2042 302.26 17.6893 301.033C18.353 300.939 19.0227 300.778 19.6214 300.614C21.9265 299.982 24.8023 298.813 27.7192 297.322C30.6355 295.831 33.2667 294.184 35.1281 292.685C36.6684 291.445 38.6192 289.605 37.7777 287.956C37.0918 286.615 34.985 286.494 31.499 287.588C31.6774 287.292 31.8452 286.999 31.9983 286.712C33.7868 283.357 33.2201 281.709 32.4296 280.917C31.0318 279.517 28.4189 280.223 25.5888 281.949C26.7608 278.338 26.6668 276.159 25.2989 275.457C23.6642 274.618 21.8097 276.561 20.5666 278.099C19.0643 279.958 17.4135 282.586 15.9178 285.5C14.4214 288.414 13.247 291.288 12.6117 293.592C12.4421 294.207 12.2748 294.897 12.1809 295.579C10.9855 295.091 9.69525 294.834 8.36511 294.833C5.66231 294.83 3.12103 295.88 1.21 297.789C-0.563884 299.559 -3.00514 302.239 -7.66059 308.695L-5.59966 310.182ZM13.4748 313.926C14.7162 313.503 16.0274 313.147 17.3508 312.848C14.6983 314.632 12.3228 317.04 10.9043 320.103C10.8312 320.261 10.7643 320.421 10.6946 320.58L7.20854 318.966C9.75813 316.998 11.9376 315.232 13.4748 313.926ZM29.1928 324.729L24.9718 322.775L23.904 325.08L27.7943 326.882C27.5856 327.33 27.4122 327.79 27.279 328.26L19.5097 324.662C19.5811 324.504 19.6512 324.346 19.7243 324.188C22.1924 318.858 25.7183 315.089 28.0521 313.161L27.8984 313.493L28.0561 313.158C28.7748 312.565 29.382 312.144 29.8079 311.909C30.0852 313.162 30.2136 316.275 29.2739 320.536L31.7554 321.084C32.2495 318.844 32.522 316.586 32.5441 314.612C33.8863 316.516 35.4923 318.968 36.8848 321.574C34.8679 321.419 32.8198 321.934 31.0738 323.084C30.3714 323.545 29.7402 324.101 29.1928 324.729ZM13.0005 321.648C13.0697 321.488 13.137 321.329 13.2101 321.171C15.3236 316.607 19.7785 314.134 22.2459 313.066C23.4483 312.545 24.5704 312.178 25.5696 311.926C25.2628 312.205 24.9646 312.489 24.6808 312.768C22.988 314.432 19.7937 317.991 17.4186 323.12C17.3456 323.278 17.2754 323.436 17.2041 323.594L13.0005 321.648ZM79.0248 355.1C71.3317 371.713 51.5576 378.969 34.9449 371.276L6.70399 358.198C-9.22622 350.822 -16.6744 332.26 -10.2526 315.941C-10.012 315.33 -9.74959 314.717 -9.47261 314.119L-9.44314 314.055L79.0545 355.036L79.0248 355.1ZM47.8885 336.2C49.3362 333.074 53.0578 331.709 56.1853 333.158C59.3114 334.605 60.6768 338.326 59.2293 341.452C59.0214 341.901 58.7595 342.315 58.4573 342.698L47.4386 337.595C47.5339 337.118 47.6801 336.65 47.8885 336.2ZM50.4978 328.034C51.2615 328.048 52.0236 328.028 52.7596 327.974C54.58 327.847 56.4221 328.186 58.0865 328.957C60.7472 330.189 62.7574 332.389 63.7467 335.15C64.7356 337.91 64.5785 340.886 63.3047 343.529C63.1171 343.917 62.9052 344.292 62.6759 344.651L60.8128 343.788C61.0859 343.388 61.3284 342.965 61.5348 342.519C63.5711 338.122 61.6499 332.888 57.2526 330.852C52.8539 328.815 47.6185 330.735 45.5822 335.132C45.3756 335.578 45.2101 336.037 45.0818 336.504L29.6257 329.346C29.743 328.808 29.9269 328.284 30.1781 327.781C30.6987 326.74 31.4903 325.85 32.4698 325.207C34.3234 323.985 36.6388 323.747 38.6633 324.571C38.9907 324.704 39.3039 324.859 39.5947 325.033C42.7585 326.923 46.5278 327.961 50.4978 328.034ZM34.9119 306.072C35.1966 305.967 35.4725 305.913 35.7309 305.892C34.6878 307.476 33.7524 309.128 32.9318 310.828C32.6222 310.421 32.3581 310.082 32.15 309.818L33.1209 307.722C33.478 306.95 34.114 306.364 34.9119 306.072ZM30.5221 303.48C30.6733 303.69 30.8101 303.936 30.9146 304.221C31.2074 305.018 31.1719 305.882 30.8147 306.654L29.844 308.75C29.5085 308.762 29.0775 308.78 28.5681 308.807C29.334 307.082 29.9884 305.3 30.5221 303.48ZM34.9656 289.397C33.9068 290.554 31.1328 292.723 26.562 295.06C25.4393 295.634 24.3894 296.125 23.4196 296.543C24.497 295.683 25.558 294.73 26.5496 293.74C27.3414 292.95 28.0811 292.142 28.7655 291.334C31.8228 290.029 33.8796 289.52 34.9656 289.397ZM30.6259 282.718C30.8988 283.41 29.5546 287.15 24.7548 291.942C19.9543 296.734 16.2122 298.072 15.5209 297.798C15.2479 297.105 16.5919 293.366 21.3921 288.574C26.1926 283.781 29.9346 282.444 30.6259 282.718ZM18.1781 286.661C20.5222 282.094 22.6963 279.324 23.8548 278.267C23.7268 279.384 23.1908 281.524 21.7948 284.726L21.8076 284.731C21.0481 285.38 20.3048 286.068 19.5967 286.775C18.4853 287.885 17.4196 289.082 16.4796 290.291C16.9427 289.189 17.5033 287.975 18.1781 286.661Z" fill="#FFE082"/>
<path d="M2.2602 303.906L4.78735 306.438L6.58571 304.642L4.05855 302.111L2.2602 303.906Z" fill="#FFE082"/>
<path d="M84.8743 350.069C83.7662 350.283 82.6416 350.052 81.7063 349.42L80.2826 351.524C80.5909 351.733 80.9123 351.914 81.2434 352.068C82.5204 352.659 83.9466 352.836 85.3553 352.565C87.1298 352.223 88.665 351.21 89.6781 349.713C90.6908 348.216 91.06 346.414 90.7181 344.64L88.2229 345.121C88.4366 346.229 88.2058 347.354 87.5734 348.289C86.9408 349.223 85.9824 349.855 84.8743 350.069Z" fill="#FFE082"/>
<path d="M75.272 318.695L76.9357 316.774C74.6443 314.791 71.1656 315.04 69.1815 317.331C67.1976 319.623 67.448 323.101 69.7393 325.085L71.4024 323.164C70.1703 322.097 70.0361 320.227 71.1027 318.995C72.1695 317.763 74.0399 317.628 75.272 318.695Z" fill="#FFE082"/>
<path d="M318.705 344.868L313.684 346.511C313.711 346.033 313.671 345.545 313.553 345.06L309.054 326.635C308.949 326.205 308.67 325.838 308.283 325.623C308.218 325.586 308.15 325.557 308.081 325.53L308.947 315.651C308.984 315.231 308.853 314.814 308.582 314.491C308.311 314.168 307.923 313.966 307.503 313.929L302.435 313.484C302.001 313.446 301.592 313.587 301.281 313.845C301.221 313.435 301.004 313.063 300.673 312.811C300.338 312.555 299.915 312.442 299.497 312.498L294.456 313.175C294.138 313.217 293.856 313.352 293.63 313.547L292.904 311.76C292.573 310.947 291.645 310.556 290.833 310.886L286.121 312.801C285.73 312.96 285.418 313.267 285.255 313.656C285.091 314.044 285.088 314.481 285.247 314.872L286.445 317.82L286.117 317.339C285.623 316.613 284.635 316.425 283.909 316.92L279.704 319.782C279.356 320.019 279.116 320.385 279.037 320.799C278.959 321.214 279.048 321.642 279.285 321.991L286.292 332.283L286.067 332.356C285.646 332.494 285.302 332.801 285.117 333.203C284.932 333.606 284.923 334.067 285.093 334.476L289.646 345.457L287.063 346.302C286.61 346.451 286.248 346.794 286.075 347.238C285.903 347.682 285.938 348.179 286.172 348.594L289.468 354.435L282.21 356.81C282.49 355.648 282.463 354.396 282.065 353.178L281.951 352.829C283.615 351.585 284.387 349.371 283.706 347.289C283.025 345.207 281.094 343.879 279.015 343.859L277.685 339.794C278.471 338.947 278.787 337.71 278.403 336.536L277.349 333.314C276.688 331.294 274.339 328.879 266.903 328.838C261.673 328.809 255.15 329.985 248.536 332.15C241.921 334.314 235.964 337.221 231.763 340.336C225.79 344.766 225.323 348.102 225.984 350.121L227.039 353.344C227.423 354.518 228.409 355.328 229.544 355.547L230.874 359.612C229.209 360.856 228.437 363.07 229.118 365.152C229.8 367.234 231.731 368.562 233.809 368.582L233.923 368.931C234.322 370.149 235.04 371.175 235.954 371.947L231.687 373.343C229.965 373.906 229.023 375.765 229.587 377.486L230.641 380.709C231.205 382.431 233.063 383.373 234.785 382.81L321.803 354.335C323.525 353.772 324.467 351.913 323.903 350.192L322.849 346.969C322.285 345.247 320.427 344.305 318.705 344.868ZM302.918 326.05C302.93 325.992 302.939 325.934 302.944 325.874L303.741 316.791L305.641 316.957L304.829 326.217L303.02 326.809L302.918 326.05ZM297.369 322.94C297.365 322.887 297.358 322.833 297.348 322.78L296.454 316.115L298.344 315.861L299.947 327.814L298.104 328.417L297.369 322.94ZM290.557 314.43L294.233 323.475L295.031 329.423L294.643 329.55L288.79 315.148L290.557 314.43ZM306.373 329.057L310.464 345.815C310.686 346.723 310.164 347.663 309.275 347.954L304.433 349.538L303.638 342.879C303.582 342.406 303.316 341.984 302.915 341.727C302.513 341.471 302.018 341.409 301.565 341.557L292.676 344.465L288.687 334.844L306.373 329.057ZM284.384 320.442L291.324 330.636L289.437 331.254L282.807 321.516L284.384 320.442ZM300.711 345.181L301.342 350.46C301.348 350.51 301.317 350.558 301.269 350.574L292.631 353.4C292.584 353.416 292.531 353.395 292.506 353.351L289.894 348.721L300.711 345.181ZM229.005 349.133C228.462 347.473 231.172 344.733 233.657 342.89C234.814 342.032 236.122 341.19 237.548 340.375C237.552 340.377 237.555 340.379 237.558 340.381L243.975 343.633C244.366 343.831 244.801 343.852 245.188 343.726C245.574 343.6 245.913 343.326 246.111 342.934C246.508 342.151 246.195 341.194 245.412 340.798L241.008 338.565C242.071 338.055 243.18 337.562 244.325 337.09L254.171 342.081C254.562 342.279 254.997 342.3 255.384 342.174C255.77 342.047 256.109 341.773 256.307 341.382C256.704 340.598 256.391 339.642 255.608 339.245L248.35 335.566C248.738 335.432 249.13 335.3 249.524 335.171C250.416 334.879 251.305 334.609 252.188 334.355L260.089 338.36C260.48 338.559 260.915 338.58 261.302 338.453C261.688 338.327 262.027 338.053 262.225 337.661C262.622 336.878 262.309 335.921 261.526 335.525L256.894 333.176C260.519 332.404 263.933 332.001 266.885 332.017C269.979 332.034 273.784 332.642 274.327 334.302L275.382 337.525C275.4 337.581 275.37 337.641 275.314 337.659L230.194 352.423C230.138 352.442 230.078 352.411 230.06 352.356L229.005 349.133ZM274.792 341.175L275.913 344.599L273.215 345.482L268.67 343.178L274.792 341.175ZM268.942 346.88L263.546 348.646L259.001 346.342L264.397 344.576L268.942 346.88ZM259.273 350.044L253.877 351.809L249.333 349.506L254.728 347.74L259.273 350.044ZM249.604 353.208L244.209 354.973L239.664 352.669L245.06 350.904L249.604 353.208ZM239.936 356.371L233.814 358.375L232.693 354.95L235.391 354.068L239.936 356.371ZM232.14 364.163C231.831 363.219 232.348 362.2 233.292 361.891L278.412 347.126C279.356 346.817 280.376 347.334 280.684 348.278C280.993 349.222 280.477 350.241 279.533 350.55L234.412 365.315C233.468 365.624 232.449 365.107 232.14 364.163ZM279.011 354.066L279.044 354.167C279.643 356 278.64 357.978 276.807 358.578L241.356 370.179C239.523 370.778 237.544 369.775 236.945 367.943L236.912 367.842L279.011 354.066ZM320.882 351.18C320.9 351.236 320.87 351.296 320.814 351.314L233.796 379.788C233.741 379.807 233.681 379.776 233.663 379.721L232.608 376.498C232.59 376.442 232.62 376.382 232.676 376.364L319.694 347.89C319.749 347.871 319.809 347.902 319.827 347.957L320.882 351.18Z" fill="#FAC214"/>
<path d="M241.166 320.185C241.998 322.728 243.516 323.721 244.735 324.519C245.782 325.204 246.538 325.699 247.024 327.182C247.297 328.016 248.194 328.471 249.029 328.198C249.863 327.925 250.318 327.027 250.045 326.193C249.213 323.65 247.695 322.657 246.476 321.859C245.429 321.174 244.673 320.679 244.188 319.197C243.702 317.712 244.019 316.865 244.459 315.692C244.97 314.327 245.606 312.628 244.774 310.084C243.941 307.539 242.423 306.544 241.204 305.744C240.156 305.058 239.399 304.561 238.912 303.075C238.639 302.241 237.742 301.786 236.907 302.059C236.073 302.332 235.618 303.23 235.891 304.064C236.724 306.609 238.241 307.604 239.461 308.403C240.509 309.09 241.266 309.587 241.752 311.073C242.238 312.557 241.921 313.405 241.481 314.577C240.97 315.942 240.334 317.641 241.166 320.185Z" fill="#FAC214"/>
<path d="M249.813 319.026C250.293 318.869 250.647 318.506 250.81 318.066C251.455 316.347 252.789 312.775 251.218 307.975C250.58 306.025 249.604 304.31 248.316 302.876C247.73 302.223 246.725 302.169 246.071 302.756C245.418 303.343 245.364 304.348 245.951 305.001C246.941 306.103 247.697 307.437 248.197 308.964C249.417 312.693 248.435 315.345 247.839 316.936C247.709 317.268 247.689 317.645 247.808 318.01C248.081 318.844 248.979 319.299 249.813 319.026Z" fill="#FAC214"/>
<path d="M239.271 327.812C239.473 327.745 239.665 327.637 239.834 327.486C240.489 326.902 240.546 325.897 239.961 325.242C238.982 324.146 238.235 322.822 237.739 321.307C236.514 317.562 237.51 314.904 238.105 313.314C238.121 313.272 238.135 313.228 238.147 313.184C238.32 312.566 238.098 311.895 237.594 311.498C236.904 310.955 235.905 311.075 235.362 311.765C235.222 311.942 235.127 312.14 235.073 312.346C234.412 314.115 233.189 317.624 234.717 322.296C235.35 324.23 236.317 325.934 237.59 327.36C238.024 327.845 238.689 328.002 239.271 327.812Z" fill="#FAC214"/>
<circle cx="310" cy="278" r="9" fill="#D61D4F"/>
<circle cx="117" cy="46" r="7" fill="#D61D4F"/>
<circle cx="284.5" cy="136.5" r="16.5" fill="#FA9418"/>
<circle cx="69.5" cy="272.5" r="10.5" fill="#FA9418"/>
<circle cx="194" cy="99" r="7.5" stroke="white" stroke-width="3"/>
<circle cx="310" cy="64" r="7.5" stroke="#FAC214" stroke-width="3"/>
<path d="M97.44 722H99.376V714.032L105.552 722H107.2V710.8H105.264V718.544L99.264 710.8H97.44V722ZM113.873 722.192C116.481 722.192 118.401 720.192 118.401 717.792V717.76C118.401 715.344 116.497 713.376 113.905 713.376C111.313 713.376 109.393 715.376 109.393 717.792V717.824C109.393 720.224 111.297 722.192 113.873 722.192ZM113.905 720.496C112.401 720.496 111.329 719.264 111.329 717.792V717.76C111.329 716.288 112.321 715.072 113.873 715.072C115.393 715.072 116.465 716.304 116.465 717.792V717.824C116.465 719.28 115.473 720.496 113.905 720.496ZM130.593 722.192C132.689 722.192 133.969 721.424 135.137 720.208L133.873 718.928C132.913 719.824 132.033 720.368 130.657 720.368C128.513 720.368 126.961 718.592 126.961 716.4V716.368C126.961 714.176 128.529 712.416 130.657 712.416C131.937 712.416 132.897 712.976 133.793 713.808L135.057 712.352C133.985 711.328 132.737 710.608 130.673 710.608C127.281 710.608 124.897 713.216 124.897 716.4V716.432C124.897 719.648 127.329 722.192 130.593 722.192ZM136.982 722H138.918V717.232C138.918 715.92 139.702 715.136 140.822 715.136C141.974 715.136 142.63 715.888 142.63 717.2V722H144.566V716.608C144.566 714.656 143.462 713.376 141.558 713.376C140.246 713.376 139.462 714.064 138.918 714.848V710.32H136.982V722ZM149.336 722.176C150.632 722.176 151.512 721.632 152.088 720.944V722H153.976V716.992C153.976 715.888 153.688 714.992 153.064 714.384C152.472 713.776 151.528 713.44 150.264 713.44C148.92 713.44 148.008 713.712 147.08 714.128L147.592 715.648C148.36 715.328 149.064 715.12 150.008 715.12C151.368 715.12 152.104 715.76 152.104 716.96V717.168C151.448 716.96 150.776 716.816 149.832 716.816C147.768 716.816 146.344 717.712 146.344 719.536V719.568C146.344 721.264 147.752 722.176 149.336 722.176ZM149.88 720.768C148.952 720.768 148.232 720.304 148.232 719.488V719.456C148.232 718.576 148.968 718.048 150.216 718.048C150.984 718.048 151.64 718.192 152.136 718.384V718.96C152.136 720.032 151.16 720.768 149.88 720.768ZM160.31 722.192C162.918 722.192 164.838 720.192 164.838 717.792V717.76C164.838 715.344 162.934 713.376 160.342 713.376C157.75 713.376 155.83 715.376 155.83 717.792V717.824C155.83 720.224 157.734 722.192 160.31 722.192ZM160.342 720.496C158.838 720.496 157.766 719.264 157.766 717.792V717.76C157.766 716.288 158.758 715.072 160.31 715.072C161.83 715.072 162.902 716.304 162.902 717.792V717.824C162.902 719.28 161.91 720.496 160.342 720.496ZM169.706 722.16C171.466 722.16 172.842 721.28 172.842 719.504V719.472C172.842 717.952 171.45 717.392 170.218 717.008C169.226 716.688 168.314 716.432 168.314 715.808V715.776C168.314 715.296 168.746 714.944 169.498 714.944C170.202 714.944 171.066 715.248 171.882 715.744L172.65 714.368C171.754 713.776 170.602 713.408 169.546 713.408C167.866 713.408 166.538 714.384 166.538 715.984V716.016C166.538 717.632 167.93 718.144 169.178 718.496C170.17 718.8 171.066 719.024 171.066 719.68V719.712C171.066 720.272 170.586 720.624 169.754 720.624C168.89 720.624 167.914 720.272 166.986 719.584L166.122 720.896C167.178 721.728 168.506 722.16 169.706 722.16ZM179.494 722H181.622V719.792H179.494V722ZM183.791 722H185.919V719.792H183.791V722ZM188.088 722H190.216V719.792H188.088V722ZM202.878 722.192C206.318 722.192 208.75 719.552 208.75 716.4V716.368C208.75 713.216 206.35 710.608 202.91 710.608C199.47 710.608 197.038 713.248 197.038 716.4V716.432C197.038 719.584 199.438 722.192 202.878 722.192ZM202.91 720.368C200.686 720.368 199.102 718.576 199.102 716.4V716.368C199.102 714.192 200.654 712.416 202.878 712.416C205.102 712.416 206.686 714.224 206.686 716.4V716.432C206.686 718.608 205.134 720.368 202.91 720.368ZM210.904 722H212.84V717.232C212.84 715.92 213.624 715.136 214.744 715.136C215.896 715.136 216.552 715.888 216.552 717.2V722H218.488V716.608C218.488 714.656 217.384 713.376 215.48 713.376C214.168 713.376 213.384 714.064 212.84 714.848V713.552H210.904V722ZM220.937 722H222.873V710.32H220.937V722ZM229.068 719.824L226.684 713.552H224.604L228.124 722.016C227.804 722.736 227.468 722.976 226.924 722.976C226.524 722.976 226.14 722.848 225.788 722.656L225.132 724.096C225.724 724.416 226.332 724.608 227.132 724.608C228.492 724.608 229.244 723.968 229.916 722.24L233.276 713.552H231.26L229.068 719.824ZM239.956 722H241.924V717.44H247.572V715.648H241.924V712.592H248.292V710.8H239.956V722ZM254.013 722.192C256.621 722.192 258.541 720.192 258.541 717.792V717.76C258.541 715.344 256.637 713.376 254.045 713.376C251.453 713.376 249.533 715.376 249.533 717.792V717.824C249.533 720.224 251.437 722.192 254.013 722.192ZM254.045 720.496C252.541 720.496 251.469 719.264 251.469 717.792V717.76C251.469 716.288 252.461 715.072 254.013 715.072C255.533 715.072 256.605 716.304 256.605 717.792V717.824C256.605 719.28 255.613 720.496 254.045 720.496ZM264.529 722.192C267.137 722.192 269.057 720.192 269.057 717.792V717.76C269.057 715.344 267.153 713.376 264.561 713.376C261.969 713.376 260.049 715.376 260.049 717.792V717.824C260.049 720.224 261.953 722.192 264.529 722.192ZM264.561 720.496C263.057 720.496 261.985 719.264 261.985 717.792V717.76C261.985 716.288 262.977 715.072 264.529 715.072C266.049 715.072 267.121 716.304 267.121 717.792V717.824C267.121 719.28 266.129 720.496 264.561 720.496ZM274.516 722.176C275.893 722.176 276.773 721.472 277.397 720.592V722H279.333V710.32H277.397V714.864C276.789 714.064 275.909 713.376 274.516 713.376C272.501 713.376 270.597 714.96 270.597 717.76V717.792C270.597 720.592 272.533 722.176 274.516 722.176ZM274.981 720.496C273.669 720.496 272.549 719.424 272.549 717.792V717.76C272.549 716.08 273.653 715.056 274.981 715.056C276.277 715.056 277.429 716.128 277.429 717.76V717.792C277.429 719.408 276.277 720.496 274.981 720.496Z" fill="#7E7E7E"/>
</g>
<defs>
<clipPath id="clip0_158_2237">
<rect width="375" height="812" fill="white"/>
</clipPath>
<clipPath id="clip1_158_2237">
<rect width="105.672" height="113.5" fill="white" transform="translate(134.664 474.75)"/>
</clipPath>
</defs>
</svg>
