<svg width="44" height="44" viewBox="0 0 44 44" fill="none" xmlns="http://www.w3.org/2000/svg">
<path d="M26.4101 15.686C27.0386 15.0575 28.0575 15.0575 28.686 15.686C29.3144 16.3144 29.3144 17.3334 28.686 17.9618L25.3934 21.2545L28.6606 24.5217C29.2583 25.1194 29.2583 26.0884 28.6606 26.6861C28.0629 27.2837 27.0939 27.2837 26.4963 26.6861L23.229 23.4188L19.9618 26.686C19.3334 27.3144 18.3144 27.3144 17.686 26.686C17.0575 26.0575 17.0575 25.0386 17.686 24.4101L20.9531 21.143L17.6606 17.8504C17.0629 17.2528 17.0629 16.2837 17.6606 15.6861C18.2583 15.0884 19.2273 15.0884 19.825 15.6861L23.1175 18.9786L26.4101 15.686Z" fill="#FA9418"/>
</svg>
