<svg width="44" height="44" viewBox="0 0 44 44" fill="none" xmlns="http://www.w3.org/2000/svg">
<path d="M18.1025 22.0952H24.3075V23.7143H18.1025V22.0952ZM19.6537 28.5714H16.5512V15.619H21.9806V19.6667H25.8587V22.1762L27.41 20.5571V18.8571L22.7562 14H16.5512C16.1398 14 15.7453 14.1706 15.4543 14.4742C15.1634 14.7778 15 15.1896 15 15.619V28.5714C15 29.0008 15.1634 29.4126 15.4543 29.7163C15.7453 30.0199 16.1398 30.1905 16.5512 30.1905H19.6537V28.5714ZM18.1025 26.9524H21.2825L21.9806 26.2238V25.3333H18.1025V26.9524ZM27.5651 22.9048C27.6427 22.9048 27.7978 22.9857 27.8753 23.0667L28.8837 24.119C29.0388 24.281 29.0388 24.6048 28.8837 24.7667L28.108 25.5762L26.4792 23.8762L27.2548 23.0667C27.3324 22.9857 27.41 22.9048 27.5651 22.9048ZM27.5651 26.0619L22.8338 31H21.205V29.3L25.9363 24.3619L27.5651 26.0619Z" fill="#D61D4F"/>
</svg>
