<svg width="26" height="41" viewBox="0 0 26 41" fill="none" xmlns="http://www.w3.org/2000/svg">
<rect x="0.5" y="0.5" width="25" height="40" rx="4.5" fill="white" stroke="#FA9418"/>
<path d="M2 6C2 3.79086 3.79086 2 6 2H20C22.2091 2 24 3.79086 24 6V35C24 37.2091 22.2091 39 20 39H6C3.79086 39 2 37.2091 2 35V6Z" fill="#FA9418"/>
<rect x="9" y="35" width="8" height="2" rx="1" fill="white"/>
<path fill-rule="evenodd" clip-rule="evenodd" d="M24.5001 14.5L10.9477 25.6628C10.6199 25.9299 10.1947 26.0462 9.77668 25.9833C9.35864 25.9203 8.98659 25.6838 8.75208 25.332L5.75208 20.832C5.29256 20.1428 5.47882 19.2114 6.16811 18.7519C6.8574 18.2924 7.78871 18.4787 8.24823 19.1679L10.3325 22.2943L24.5001 10.5V14.5Z" fill="white"/>
</svg>
